P3
#MAX=436
# nancy_church_1.ppm
2 3
10000000
9676 9452 7301     9541 9496 7570
9676 9452 7301     9452 9407 7525
9676 9496 7346     9720 9407 7570