P3
#MAX=400
# nancy_church_1.ppm
2 3
300
200 92 196     120 110 290
150 230 54     165 140 60
75 300 120     300 000 70