P3
#MAX=400.000000
# nancy_church_1.ppm
2 3
300
191 69 191     90 82 191     
112 191 40     124 105 45     
56 191 90     191 0 52     

